<svg width="21" height="20" viewBox="0 0 21 20" fill="none" xmlns="http://www.w3.org/2000/svg">
<path fill-rule="evenodd" clip-rule="evenodd" d="M16.3188 8.33301C16.3188 4.95036 14.4155 2.60259 11.9528 1.89777C11.8637 1.67164 11.7227 1.46142 11.5312 1.28503C10.8767 0.682333 9.85677 0.682333 9.20225 1.28503C9.01112 1.46104 8.87038 1.67072 8.78118 1.89628C6.31536 2.59803 4.41465 4.94067 4.41465 8.33301C4.41465 10.5279 3.96313 11.7578 3.12727 12.6491C2.98754 12.7981 2.60898 13.1394 2.3525 13.3707L2.35244 13.3707L2.3524 13.3707L2.35235 13.3708C2.23103 13.4802 2.13704 13.5649 2.10862 13.593L1.86377 13.8363V16.6781H7.04035C7.21539 17.5631 7.70537 18.1552 8.59147 18.6852C9.6815 19.3371 11.0519 19.3371 12.142 18.6852C12.924 18.2175 13.4483 17.4987 13.661 16.6781H18.8697V13.8363L18.6248 13.593C18.599 13.5673 18.5089 13.4858 18.391 13.3793C18.1353 13.1481 17.7492 12.799 17.6073 12.6471C16.7709 11.7517 16.3188 10.5202 16.3188 8.33301ZM11.8434 16.6781H8.81801C8.93814 16.8971 9.1429 17.0625 9.47732 17.2625C10.0234 17.5891 10.71 17.5891 11.2561 17.2625C11.509 17.1112 11.7066 16.9111 11.8434 16.6781ZM16.3529 13.7725C16.5319 13.9641 16.9154 14.3142 17.1691 14.5429V15.0114H3.56436V14.5433C3.81611 14.3173 4.20075 13.9674 4.37936 13.7769C5.51512 12.5658 6.11524 10.9312 6.11524 8.33301C6.11524 5.18292 8.09879 3.34333 10.3667 3.34333C12.6283 3.34333 14.6182 5.19242 14.6182 8.33301C14.6182 10.9228 15.2185 12.558 16.3529 13.7725Z" fill="white"/>
<path d="M18.519 4.27143C18.519 6.08538 17.0166 7.56786 15.1484 7.56786C13.2801 7.56786 11.7777 6.08538 11.7777 4.27143C11.7777 2.45748 13.2801 0.975 15.1484 0.975C17.0166 0.975 18.519 2.45748 18.519 4.27143Z" fill="#416FE6" stroke="white" stroke-width="0.7"/>
</svg>
