<svg width="18" height="18" viewBox="0 0 18 18" fill="none" xmlns="http://www.w3.org/2000/svg">
<path d="M4.875 15.75H2.25C1.8375 15.75 1.5 15.4125 1.5 15V7.5C1.5 7.0875 1.8375 6.75 2.25 6.75H4.875C5.2875 6.75 5.625 7.0875 5.625 7.5V15C5.625 15.4125 5.2875 15.75 4.875 15.75ZM10.3125 2.25H7.6875C7.275 2.25 6.9375 2.5875 6.9375 3V15C6.9375 15.4125 7.275 15.75 7.6875 15.75H10.3125C10.725 15.75 11.0625 15.4125 11.0625 15V3C11.0625 2.5875 10.725 2.25 10.3125 2.25ZM15.75 8.25H13.125C12.7125 8.25 12.375 8.5875 12.375 9V15C12.375 15.4125 12.7125 15.75 13.125 15.75H15.75C16.1625 15.75 16.5 15.4125 16.5 15V9C16.5 8.5875 16.1625 8.25 15.75 8.25Z" fill="#B4B7BB"/>
</svg>
